 <svg  version="1.0" xmlns="http://www.w3.org/2000/svg"  width="300.000000pt" height="261.000000pt" viewBox="0 0 300.000000 261.000000"  preserveAspectRatio="xMidYMid meet">  <g transform="translate(0.000000,261.000000) scale(0.050000,-0.050000)" fill="#d0a50f" stroke="none"> <path d="M2874 4187 c-21 -21 -17 -183 6 -197 11 -7 20 1 20 18 0 26 10 27 55 10 107 -41 265 32 183 84 -38 24 -172 23 -219 -3 -22 -11 -39 -16 -39 -10 0 5 28 25 63 42 58 30 93 31 213 2 36 -9 45 -4 40 23 -7 36 -290 63 -322 31z"/> <path d="M3224 4036 c-18 -18 -24 -202 -24 -706 l0 -683 170 2 170 1 0 134 c0 114 -6 138 -40 156 -22 12 -40 13 -40 3 0 -10 -11 -18 -25 -18 -97 4 -135 -7 -135 -41 0 -29 15 -34 85 -31 l85 4 -80 -14 -80 -14 99 -65 c118 -76 101 -86 -23 -12 -125 73 -167 224 -55 196 25 -6 63 -1 83 11 31 20 28 22 -23 14 -60 -9 -111 2 -111 24 0 7 20 14 45 16 25 2 63 6 85 10 22 4 38 -3 36 -15 -2 -12 18 -32 45 -45 l49 -22 1 134 0 135 69 -210 c38 -115 77 -228 88 -250 10 -22 22 -52 26 -66 5 -19 76 -29 263 -37 243 -10 256 -9 245 26 -107 325 -147 417 -183 417 -21 0 -41 16 -45 35 -4 22 5 35 26 35 19 0 27 9 19 22 -8 12 -2 30 13 40 22 14 21 17 -7 18 -19 0 -35 13 -35 29 0 16 16 39 35 52 33 21 33 22 0 11 -47 -15 -44 20 5 63 48 41 51 76 8 93 -55 21 -98 -15 -61 -52 27 -27 27 -35 1 -73 -41 -58 -117 -59 -102 -1 9 33 4 38 -22 28 -19 -8 -92 -36 -164 -63 -71 -27 -141 -64 -155 -82 -20 -26 -25 46 -25 379 0 357 -4 413 -32 424 -56 21 -259 13 -284 -12z m161 -441 c-12 -154 -22 -162 -23 -20 -1 69 6 125 15 125 9 0 13 -47 8 -105z m33 -255 c66 0 48 -12 -45 -29 -48 -8 -72 -6 -65 6 7 11 1 25 -13 32 -14 6 -2 7 25 1 28 -5 72 -10 98 -10z m47 -75 c-14 -5 -20 -17 -14 -27 6 -10 -30 -18 -80 -18 -80 0 -110 15 -83 42 5 4 52 9 105 10 54 1 86 -2 72 -7z m499 -16 c30 -30 -9 -88 -45 -68 -22 11 -33 32 -26 49 11 30 50 40 71 19z m-194 -261 c21 -16 55 -23 76 -16 26 8 34 5 25 -10 -61 -99 -220 102 -177 225 11 33 17 18 26 -64 8 -73 24 -116 50 -135z m-299 190 c19 -31 -29 -57 -105 -58 -66 0 -98 25 -76 60 17 27 164 25 181 -2z m422 -74 c47 12 59 -49 16 -85 -40 -33 -101 -8 -71 29 17 20 15 33 -8 52 -16 14 -30 35 -30 46 0 12 12 5 27 -15 17 -23 42 -33 66 -27z m-433 -27 c0 -7 -40 -16 -90 -20 -52 -4 -90 1 -90 13 0 11 41 20 90 20 50 0 90 -6 90 -13z m531 -206 c35 -26 31 -27 -36 -7 -56 17 -88 17 -130 -1 -51 -22 -52 -21 -16 7 49 38 132 39 182 1z m149 -116 c17 -6 -9 -17 -57 -26 -47 -8 -91 -27 -97 -42 -6 -15 -19 -27 -29 -27 -11 0 -14 9 -7 20 7 12 -15 21 -54 23 l-66 2 70 13 c98 17 50 40 -70 33 -66 -4 -86 -1 -60 10 60 24 166 22 208 -4 59 -37 109 -8 82 48 l-23 45 37 -43 c20 -23 50 -47 66 -52z"/> <path d="M3300 3160 c0 -11 32 -20 70 -20 39 0 70 9 70 20 0 11 -31 20 -70 20 -38 0 -70 -9 -70 -20z"/> <path d="M2860 3878 c0 -55 5 -61 45 -51 25 7 78 13 118 13 151 0 76 96 -78 99 -82 1 -85 -1 -85 -61z"/> <path d="M2047 3875 c-9 -14 -14 -113 -12 -220 l5 -195 -224 0 c-254 0 -286 15 -46 22 306 9 302 57 -4 58 -162 0 -187 -5 -205 -39 -35 -64 -28 -701 8 -701 19 0 31 -28 36 -85 5 -47 10 62 12 241 2 194 -5 342 -18 365 -20 38 -12 39 210 39 l231 0 0 -328 0 -328 165 -21 165 -21 -165 10 c-105 6 -165 2 -165 -12 0 -12 67 -20 170 -20 l170 0 3 505 c3 596 1 713 -14 737 -18 28 -304 22 -322 -7z m273 -123 c0 -5 5 -23 12 -40 10 -27 -8 -32 -120 -32 -73 0 -132 4 -132 8 0 54 33 72 132 72 59 0 108 -4 108 -8z m20 -141 c0 -80 -179 -97 -228 -21 l-33 50 131 0 c101 0 130 -7 130 -29z m-47 -121 c4 -11 -38 -22 -93 -25 -60 -3 -100 4 -100 17 0 11 16 16 35 10 19 -6 49 -2 65 8 36 24 84 18 93 -10z m-253 -80 c0 -25 -39 -30 -227 -30 -188 0 -226 5 -226 30 0 25 38 30 226 30 188 0 227 -5 227 -30z m256 -35 c1 -54 -1 -55 -102 -51 l-104 3 95 8 c114 9 127 45 16 45 -70 0 -114 20 -92 42 40 40 185 3 187 -47z m-16 -95 c-27 -18 -27 -22 0 -41 22 -15 8 -17 -50 -8 -127 19 -148 34 -70 50 114 22 156 22 120 -1z m-685 -344 c-4 -69 -7 -18 -7 114 0 132 3 189 7 126 4 -63 4 -171 0 -240z m703 257 c-23 -21 -198 -33 -198 -14 0 12 44 21 103 21 57 0 100 -3 95 -7z m0 -86 c5 -4 -13 -7 -40 -7 -26 0 -70 -6 -96 -13 -32 -9 -44 -6 -35 8 7 12 2 27 -12 33 -14 6 20 5 75 -1 55 -7 104 -15 108 -20z m-15 -63 c-23 -7 -23 -12 0 -26 17 -11 -11 -17 -78 -18 -94 0 -124 14 -95 43 6 6 53 10 105 10 52 0 83 -4 68 -9z m17 -86 c0 -10 -45 -18 -100 -18 -130 0 -130 29 0 33 55 2 100 -5 100 -15z m-17 -52 c-23 -9 -23 -14 -1 -27 48 -30 9 -37 -90 -15 -113 24 -91 56 38 54 44 -1 68 -6 53 -12z m-25 -84 c79 -3 34 -24 -76 -36 -78 -8 -102 -4 -102 17 0 18 22 26 65 24 36 -2 87 -5 113 -5z"/> <path d="M2954 3740 c-33 -47 -24 -632 11 -675 28 -35 106 -31 144 6 25 26 31 86 31 339 0 253 -6 313 -31 339 -44 43 -121 39 -155 -9z m145 -19 c12 -21 21 -161 21 -311 0 -280 -15 -350 -77 -350 -74 0 -83 39 -83 350 0 311 9 350 83 350 20 0 45 -17 56 -39z"/> <path d="M2496 3626 c-77 -20 24 -133 103 -114 48 11 49 10 15 -28 -22 -24 -30 -52 -22 -76 11 -31 9 -33 -13 -13 -41 38 -69 30 -70 -20 -1 -25 -8 -67 -17 -95 -13 -42 -9 -40 25 13 76 120 180 104 240 -37 l35 -81 2 112 c2 62 -7 118 -18 126 -15 9 -17 -6 -8 -45 13 -52 11 -55 -16 -28 -45 44 -59 153 -22 167 19 8 30 0 30 -21 0 -25 8 -23 39 13 l39 45 7 -197 7 -197 4 233 c3 196 -1 235 -28 245 -35 13 -279 12 -332 -2z"/> <path d="M1948 2970 c0 -187 3 -266 7 -176 4 90 4 243 0 340 -4 97 -7 23 -7 -164z"/> <path d="M2660 3114 c0 -29 -9 -57 -20 -64 -39 -24 -19 -51 28 -39 26 7 54 3 61 -9 25 -40 52 -22 40 26 -7 26 -3 54 9 61 37 23 24 48 -18 37 -22 -6 -54 0 -70 14 -25 21 -30 17 -30 -26z"/> <path d="M2833 2915 c-7 -47 -5 -130 5 -185 16 -93 17 -87 20 85 2 200 -6 234 -25 100z"/> <path d="M2774 2884 c-15 -74 -88 -164 -134 -164 -21 0 -43 -9 -50 -20 -7 -12 12 -20 47 -20 35 0 64 13 71 32 7 18 25 27 42 21 30 -12 36 5 56 132 11 74 -18 90 -32 19z"/> <path d="M1755 2905 c-19 -4 -35 -16 -35 -26 0 -11 -18 -37 -40 -59 -25 -25 -30 -40 -15 -41 14 0 64 -8 111 -17 60 -12 83 -10 78 5 -4 12 -29 22 -56 23 -34 0 -50 13 -54 45 -8 56 63 64 94 10 12 -19 21 -25 21 -13 1 35 -66 82 -104 73z"/> <path d="M2484 2780 c1 -49 5 -69 10 -44 8 40 14 43 43 21 31 -24 31 -23 1 13 -18 22 -38 54 -44 70 -6 17 -10 -10 -10 -60z"/> <path d="M1540 2710 c0 -66 -4 -70 -67 -70 -60 0 -513 -451 -513 -510 0 -5 99 -10 220 -10 l220 0 0 -555 0 -555 1595 4 1595 5 -8 550 -7 551 232 0 c142 0 233 8 233 20 0 11 -7 20 -15 20 -9 0 -109 108 -223 240 l-208 240 -166 0 c-168 0 -211 -18 -168 -70 13 -16 18 -37 11 -48 -10 -17 97 -38 244 -48 28 -1 43 -14 40 -33 -3 -16 4 -31 15 -32 50 -6 88 -37 122 -102 91 -169 52 -172 -1852 -164 -1581 7 -1560 6 -1560 108 0 23 20 63 45 90 25 26 43 55 40 64 -3 8 13 15 34 15 26 0 36 10 29 28 -7 19 12 31 60 40 47 9 67 22 60 40 -6 15 4 32 22 39 20 8 26 23 17 37 -8 14 -12 59 -9 100 3 44 -4 76 -16 76 -12 0 -22 -31 -22 -70z m198 -715 c96 14 88 -26 -28 -146 l-110 -113 0 122 c0 95 7 122 30 122 17 0 31 11 32 25 1 15 5 17 10 4 5 -12 35 -18 66 -14z m2622 -186 c0 -109 -7 -167 -20 -159 -11 7 -20 37 -20 66 0 30 -12 73 -25 96 -14 24 -41 71 -61 105 l-35 63 80 0 81 0 0 -171z m-220 -160 l0 -172 -55 7 c-46 5 -56 -2 -60 -44 -12 -110 81 -128 105 -20 12 54 54 79 135 80 28 0 35 -17 35 -80 0 -80 0 -80 -80 -80 -67 0 -80 -7 -80 -40 0 -40 -13 -40 -1142 -40 -1033 0 -1141 3 -1130 32 7 17 12 76 12 130 0 74 7 98 30 98 21 0 30 21 30 72 0 56 -7 70 -30 61 -22 -9 -30 3 -30 46 0 32 -5 72 -12 89 -11 29 97 32 1130 32 l1142 0 0 -171z m-2280 -57 c0 -72 -30 -91 -145 -92 -51 0 -55 6 -55 80 l0 80 100 0 100 0 0 -68z m-180 -312 c0 -47 -9 -60 -40 -60 -35 0 -40 13 -40 100 0 100 0 100 40 60 22 -22 40 -67 40 -100z"/> <path d="M2080 1530 l0 -190 52 0 c174 0 226 323 60 368 -110 30 -112 26 -112 -178z m169 79 c51 -106 -4 -229 -102 -229 -45 0 -47 6 -47 150 l0 150 58 0 c46 0 64 -14 91 -71z"/> <path d="M2902 1621 c-12 -55 -26 -139 -31 -186 l-9 -85 22 75 c27 89 116 112 116 30 0 -25 10 -58 22 -75 28 -40 7 95 -35 225 -41 129 -60 133 -85 16z m77 -66 c0 -8 -12 -15 -29 -15 -31 0 -42 62 -16 88 13 12 41 -33 45 -73z"/> <path d="M2364 1676 c-30 -30 -31 -170 -2 -254 50 -142 222 3 188 158 -23 106 -124 158 -186 96z m141 -44 c47 -72 -12 -252 -84 -252 -20 0 -61 124 -61 186 0 100 94 143 145 66z"/> <path d="M3120 1680 c-60 -9 -72 -15 -35 -17 55 -3 55 -3 55 -153 0 -82 8 -150 18 -150 11 0 14 63 8 150 -10 130 -7 150 21 150 18 0 33 9 33 20 0 11 -2 19 -5 17 -3 -2 -45 -9 -95 -17z"/> <path d="M2617 1615 c-7 -188 -6 -255 7 -255 8 0 17 61 20 135 l6 135 65 -136 c81 -167 106 -157 101 42 l-3 154 -12 -140 -11 -140 -68 135 c-75 150 -101 167 -105 70z"/> <path d="M3693 1667 c-21 -22 -15 -287 7 -287 12 0 15 49 8 125 l-11 125 54 -90 c123 -201 141 -203 140 -10 -1 181 -27 200 -35 25 l-6 -125 -72 125 c-39 69 -77 119 -85 112z"/> <path d="M3293 1625 c-6 -19 -3 -89 6 -155 l16 -120 2 155 c3 153 -5 189 -24 120z"/> <path d="M3451 1629 c-60 -61 -29 -269 40 -269 37 0 109 115 109 175 0 90 -94 149 -149 94z m105 -83 c7 -74 -25 -146 -65 -146 -39 0 -57 69 -42 153 18 96 98 91 107 -7z"/> <path d="M2407 2615 c-15 -23 30 -54 78 -55 40 0 47 -32 10 -47 -14 -5 46 -11 132 -11 132 -2 155 3 146 28 -7 17 -3 30 8 30 10 0 19 -12 19 -28 0 -35 268 -27 311 9 79 65 36 79 -256 83 -157 2 -319 5 -361 7 -41 2 -81 -5 -87 -16z"/> <path d="M3577 2625 c-13 -63 -5 -125 17 -125 36 0 33 -39 -4 -53 -16 -6 -30 -26 -30 -44 1 -29 3 -29 20 -3 17 27 20 27 21 0 2 -16 11 -3 21 30 21 67 5 210 -24 210 -10 0 -19 -7 -21 -15z"/> <path d="M3680 2619 c0 -12 -9 -16 -20 -9 -12 7 -16 -12 -10 -49 6 -34 14 -88 20 -122 5 -34 2 -56 -8 -50 -10 6 -22 -12 -27 -39 -10 -55 0 -61 47 -24 17 13 27 37 22 52 -6 17 0 22 13 14 33 -21 29 66 -6 134 -16 30 -24 68 -18 85 6 16 6 29 -1 29 -7 0 -12 -10 -12 -21z"/> <path d="M3973 2566 c-7 -31 -18 -78 -26 -104 -9 -32 -6 -44 8 -35 12 7 28 50 35 94 16 93 2 130 -17 45z"/> </g> </svg> 