<svg width="1920" height="1080" viewBox="0 0 1920 1080" xmlns="http://www.w3.org/2000/svg"><rect width="1920" height="1080" fill="#292525"/><path d="M 0,1080 C 0,1080 0,135 0,135 C 171.7333333333333,122.86666666666667 343.4666666666666,110.73333333333333 554,102 C 764.5333333333334,93.26666666666667 1013.8666666666668,87.93333333333332 1248,94 C 1482.1333333333332,100.06666666666668 1701.0666666666666,117.53333333333333 1920,135 C 1920,135 1920,1080 1920,1080 Z" fill="#000000" opacity="0.075"/><path d="M 0,1080 C 0,1080 0,270 0,270 C 266.80000000000007,284.5333333333333 533.6000000000001,299.06666666666666 713,295 C 892.3999999999999,290.93333333333334 984.3999999999999,268.26666666666665 1171,261 C 1357.6000000000001,253.73333333333335 1638.8000000000002,261.8666666666667 1920,270 C 1920,270 1920,1080 1920,1080 Z" fill="#000000" opacity="0.15"/><path d="M 0,1080 C 0,1080 0,405 0,405 C 201.0666666666666,404.6 402.1333333333332,404.2 632,410 C 861.8666666666668,415.8 1120.5333333333335,427.8 1340,428 C 1559.4666666666665,428.2 1739.7333333333331,416.6 1920,405 C 1920,405 1920,1080 1920,1080 Z" fill="#000000" opacity="0.22499999999999998"/><path d="M 0,1080 C 0,1080 0,540 0,540 C 225.7333333333333,543.4666666666667 451.4666666666666,546.9333333333333 680,549 C 908.5333333333334,551.0666666666667 1139.8666666666668,551.7333333333333 1347,550 C 1554.1333333333332,548.2666666666667 1737.0666666666666,544.1333333333333 1920,540 C 1920,540 1920,1080 1920,1080 Z" fill="#000000" opacity="0.3"/><path d="M 0,1080 C 0,1080 0,675 0,675 C 231.7333333333333,660.3333333333334 463.4666666666666,645.6666666666667 686,643 C 908.5333333333334,640.3333333333333 1121.8666666666666,649.6666666666666 1326,657 C 1530.1333333333334,664.3333333333334 1725.0666666666666,669.6666666666667 1920,675 C 1920,675 1920,1080 1920,1080 Z" fill="#000000" opacity="0.375"/><path d="M 0,1080 C 0,1080 0,810 0,810 C 164,807.4666666666667 328,804.9333333333333 523,799 C 718,793.0666666666667 944,783.7333333333333 1182,785 C 1420,786.2666666666667 1670,798.1333333333333 1920,810 C 1920,810 1920,1080 1920,1080 Z" fill="#000000" opacity="0.44999999999999996"/><path d="M 0,1080 C 0,1080 0,945 0,945 C 259.7333333333333,929.2666666666667 519.4666666666666,913.5333333333334 755,926 C 990.5333333333334,938.4666666666666 1201.8666666666668,979.1333333333332 1392,987 C 1582.1333333333332,994.8666666666668 1751.0666666666666,969.9333333333334 1920,945 C 1920,945 1920,1080 1920,1080 Z" fill="#000000" opacity="0.525"/></svg>