 <svg  version="1.0" xmlns="http://www.w3.org/2000/svg"  width="256.000000pt" height="256.000000pt" viewBox="0 0 256.000000 256.000000"  preserveAspectRatio="xMidYMid meet">  <g transform="translate(0.000000,256.000000) scale(0.100000,-0.100000)" fill="#d0a50f" stroke="none"> <path d="M1220 2341 c-146 -32 -250 -157 -250 -302 0 -36 7 -86 16 -112 21 -61 93 -141 158 -175 44 -23 63 -27 136 -27 73 0 92 4 136 27 65 34 137 114 158 175 66 192 -64 397 -264 416 -30 3 -71 2 -90 -2z"/> <path d="M1200 1574 c-14 -2 -52 -9 -85 -15 -33 -6 -93 -24 -133 -41 -74 -31 -192 -103 -192 -117 0 -5 31 -11 70 -15 174 -16 344 -105 410 -214 9 -16 11 -15 21 3 7 11 33 41 59 66 77 76 216 132 358 146 34 3 62 9 62 13 0 13 -91 72 -164 106 -41 18 -103 41 -138 49 -66 15 -225 27 -268 19z"/> <path d="M608 1334 c-5 -4 -8 -24 -8 -44 l0 -38 88 -6 c183 -15 322 -51 466 -122 49 -24 90 -43 92 -42 1 2 -6 21 -17 43 -42 85 -138 152 -274 190 -64 18 -334 33 -347 19z"/> <path d="M1650 1325 c-167 -37 -271 -102 -319 -200 -11 -22 -18 -41 -17 -43 2 -1 38 16 81 38 142 72 294 113 468 126 l98 7 -3 41 -3 41 -120 2 c-73 1 -146 -4 -185 -12z"/> <path d="M522 1181 c-9 -5 -12 -25 -10 -60 3 -51 4 -53 41 -66 142 -49 173 -249 53 -340 -19 -15 -47 -30 -63 -34 l-28 -7 -3 -146 -3 -145 103 5 c179 7 385 -40 550 -125 40 -21 76 -39 81 -41 4 -2 6 175 5 394 l-3 398 -90 48 c-100 52 -245 102 -345 118 -78 12 -270 13 -288 1z"/> <path d="M1750 1180 c-106 -18 -219 -56 -324 -109 l-111 -56 -3 -398 c-1 -219 1 -397 5 -395 249 127 373 161 591 162 l143 1 -3 143 -3 144 -38 13 c-142 49 -173 249 -53 340 19 15 47 30 63 34 27 7 28 10 28 67 l0 59 -125 1 c-69 1 -145 -2 -170 -6z"/> <path d="M409 987 c-66 -44 -87 -127 -46 -187 35 -53 68 -72 122 -72 73 0 132 53 141 128 10 79 -59 154 -141 154 -27 0 -54 -8 -76 -23z"/> <path d="M2003 991 c-46 -29 -66 -66 -67 -121 -1 -81 58 -142 137 -142 139 0 196 155 93 251 -36 34 -118 40 -163 12z"/> </g> </svg> 